<?xml version="1.0" encoding="UTF-8"?>
<svg id="Layer_2" data-name="Layer 2" xmlns="http://www.w3.org/2000/svg" viewBox="0 0 634 671">
  <defs>
    <style>
      .cls-1 {
        fill: #2a4a52;
        fill-rule: evenodd;
      }
    </style>
  </defs>
  <g id="Layer_2-2" data-name="Layer 2">
    <g id="Layer_1-2" data-name="Layer 1">
      <path class="cls-1" d="M449,0v34c0,35.36.67,71.12-8,99l-17,42c16.49-4.2,88.27-54.19,115-35-78.44-1.45-139.09,58.54-167,109-10.02,18.11-32.5,51.28-15,75,14.66,19.88,59.45,12.48,83,5,58.62-18.61,78.2-79.46,139-94l-1,3c-44.62,17.61-62.8,52.76-97,79l1,2c23.46-.32,48.12-7.58,74-3,28.11,4.97,52.03,14.48,78,21v2h-1c-45.88-14.52-107.01-26.86-161-10l-52,18c-22,6.8-53.6,5.54-65,23v3c13.59,8.7,24.36,20.56,42,26,44.9,13.85,83.15-12.13,114-19l-2,3c-18.82,5.35-37.41,16.02-58,21l-38,5,5,6,24,13c10.2,2.68,15.02-5.31,24-2-8.19,1.37-13.57,6.92-24,5-16.71-3.07-27.43-15.15-41-21l-49-18c2.13,13.96,44.92,62.09,56,68l52,18c13.49,5.5,35.72,22.23,50,13l5-8v4c-3.11,5.31-5.43,9.01-11,12-32.57-5.23-56.25-24.7-91-28v3c21.69,42.89,30.13,93.23,46,143l21,54-4-3-17-39c-26.23-70.14-34.21-141.69-85-186-10.99-9.59-44.19-44.04-65-37-18.77,6.35-25.17,32.34-34,49-17.4,32.84-103.82,173.07-24,204l-1,2-3-1c-13.8-11.81-25.56-19.51-30-41v-71l-4,4c-25.56,11.62-57.63,42-65,73l-2-1v-1c9.52-44.26,46.48-55.36,71-84,18.08-21.11,27.4-51.84,40-78,8.44-17.53,22.36-43.88,17-68-5.69-7.03-14.22-14.23-25-16-16.57-2.72-90,24.14-102,31-8.27,4.73-11.38,15.01-21,18l4-4c5.97-16.35,23.34-17.05,33-29-46.2,13.33-89.42-9.03-120-18l-38-5c37.11-6.69,64.23,13.94,95,20,47.9,9.43,131.07-18.43,152-40-.62-31.95-34.38-44.18-54-58-45.54-32.07-88.29-47.25-142-72-20.4-9.4-49.86-21.31-56-44l3,1c12,29.34,54.01,39.97,86,50,9.59,3.01,26.79,13.19,36,9-12.47-33.89-37.92-69.96-40-111h1v2l12,36c10.6,25.19,21.49,56.6,38,77,14.87,18.38,45.42,26.28,66,39,19.13,11.82,46.44,35.27,74,20,.35-29.63-3.75-54.6-8-81v-52c-3.81-19.27-15.58-42.58-26-57l-31-31-21-12,1-1c43.78,19.04,60.73,51.46,82,93l2-1,29-67c6.23-17.42,9.05-47.24,21-60-4.09,65.98-58.52,109.89-45,187,4.43,25.26,4.7,63.22,24,73,30.45,7.32,47.14-37.12,59-54,27.22-38.74,60.93-63.73,76-116,9.94-34.48-.13-83.59,10-120Z"/>
    </g>
  </g>
</svg>