<?xml version="1.0" encoding="UTF-8"?>
<svg id="Layer_2" data-name="Layer 2" xmlns="http://www.w3.org/2000/svg" viewBox="0 0 538.5 561.1">
  <defs>
    <style>
      .cls-1 {
        fill: #fff;
        fill-rule: evenodd;
        stroke: #fff;
        stroke-linejoin: round;
        stroke-width: 12px;
      }
    </style>
  </defs>
  <g id="Layer_2-2" data-name="Layer 2">
    <g id="Layer_1-2" data-name="Layer 1">
      <path class="cls-1" d="M376.98,6.72c.19-1.05,1.75-.9,1.75.17v20.43c0,29.37.56,59.08-6.64,82.25,0,.03-.02.05-.03.08l-13.41,33.12c-.29.71.4,1.43,1.11,1.17,15.79-5.82,67.61-40.59,90.77-30.22.87.39.6,1.69-.35,1.69-63.58.52-112.67,49.39-135.47,90.61-8.33,15.05-27.01,42.62-12.47,62.34,12.18,16.52,49.41,10.37,68.99,4.16,48.22-15.31,64.65-64.99,113.96-77.74.68-.17,1.28.48,1.06,1.14l-.19.58c-.08.24-.27.44-.51.54-36.56,14.59-51.71,43.38-79.67,65.07-.33.26-.44.71-.25,1.09l.26.51c.15.31.47.5.81.49,19.33-.37,39.64-6.25,60.95-2.48,23.12,4.09,42.84,11.87,64.17,17.29.39.1.67.45.67.85v.98h-.83c-38.13-12.07-88.94-22.33-133.82-8.31l-43.22,14.96c-18.19,5.62-44.27,4.62-53.87,18.89-.1.15-.15.33-.15.51v1.74c0,.3.15.57.4.73,11.11,7.21,20.02,16.88,34.51,21.35,36.26,11.18,67.29-8.88,92.54-15.27.79-.2,1.41.67.96,1.35l-.24.35c-.11.17-.28.3-.48.35-15.52,4.47-30.87,13.24-47.85,17.35-.03,0-.07.01-.1.02l-29.94,3.94c-.69.09-1.01.91-.56,1.44l3.02,3.62c.07.09.16.16.26.21l19.69,10.67c.07.04.14.07.22.09,6.64,1.69,10.53-2.06,15.53-2.35,1.01-.06,1.3,1.38.35,1.72-4.87,1.71-9.11,4.37-16,3.1-13.88-2.55-22.78-12.57-34.05-17.44-.02,0-.04-.02-.06-.02l-39.13-14.37c-.69-.25-1.38.39-1.15,1.09,4.38,13.31,37.15,49.96,46.06,54.81.05.03.09.05.14.06l43.12,14.92s.04.01.06.02c11.16,4.56,29.49,18.32,41.35,10.91.12-.07.22-.18.29-.29l2.41-3.86c.47-.75,1.63-.42,1.63.47h0c0,.16-.04.32-.12.45-2.47,4.21-4.38,7.19-8.74,9.61-.18.1-.39.14-.6.1-26.6-4.37-46.1-20.12-74.34-23.12-.52-.06-.98.36-.98.89v1.3c0,.14.03.27.09.39,17.95,35.6,24.97,77.36,38.13,118.64,0,.02.01.04.02.06l16.32,41.97c.32.83-.64,1.56-1.35,1.03l-.66-.5c-.12-.09-.22-.21-.28-.35l-14.03-32.18s-.01-.03-.02-.05c-21.79-58.29-28.43-117.75-70.64-154.57-9.13-7.97-36.73-36.6-54.03-30.75-15.6,5.28-20.92,26.88-28.26,40.73-14.4,27.17-85.64,142.8-20.84,169.2.48.19.7.75.47,1.21l-.06.12c-.2.39-.65.58-1.07.44l-1.6-.53c-.11-.04-.21-.09-.29-.17-11.39-9.74-21.09-16.15-24.78-33.87-.01-.06-.02-.13-.02-.19v-56.78c0-.79-.95-1.18-1.51-.63l-1.71,1.71c-.07.07-.16.13-.25.17-20.93,9.57-47.04,34.21-53.62,59.55-.14.55-.74.83-1.25.57l-.68-.34v-.83c7.91-36.79,38.63-46.01,59.01-69.82,15.03-17.55,22.77-43.09,33.25-64.83,6.99-14.52,18.5-36.31,14.18-56.3-.03-.14-.09-.28-.19-.39-4.73-5.79-11.77-11.67-20.64-13.13-13.77-2.26-74.81,20.06-84.78,25.77-6.87,3.93-9.46,12.48-17.45,14.96l3.19-3.19c.09-.09.15-.19.2-.31,4.6-12.3,17.05-13.85,25.25-21.64.66-.62.05-1.71-.83-1.49-37.25,9.33-71.96-8.46-96.72-15.74-.05-.01-.09-.02-.14-.03l-24.79-3.26c-1.05-.14-1.01-1.68.05-1.76,27.46-2.19,48.52,12.84,72.19,17.5,39.61,7.8,108.24-15.08,126.07-32.97.17-.18.27-.42.26-.66-.78-26.27-28.65-36.39-44.87-47.82-37.85-26.66-73.38-39.27-118.03-59.84-16.45-7.58-39.98-17.12-46.03-34.9-.24-.69.43-1.36,1.12-1.13l.49.16c.24.08.43.26.53.49,10.17,24.11,44.87,32.9,71.33,41.19,7.68,2.41,21.22,10.35,29.05,7.82.49-.16.75-.69.57-1.16-10.47-27.93-31.23-57.66-32.94-91.43h.83v1.52c0,.1.02.19.05.28l9.92,29.75s.01.04.02.06c8.81,20.93,17.86,47.02,31.57,63.97,12.36,15.28,37.75,21.84,54.86,32.42,15.79,9.76,38.29,29.05,61.04,16.88.29-.15.47-.46.47-.79.24-24.37-3.14-44.96-6.64-66.72,0-.05-.01-.09-.01-.14v-43.06c0-.06,0-.12-.02-.18-3.18-15.97-12.92-35.26-21.55-47.23-.03-.04-.06-.08-.1-.11l-25.63-25.63c-.06-.06-.12-.1-.19-.14l-17.35-9.92.4-.4c.26-.26.66-.33.99-.18,35.7,15.74,49.79,42.3,67.19,76.27.22.43.75.61,1.18.39l.59-.3c.19-.09.33-.25.42-.44l23.96-55.36s.02-.04.02-.06c4.84-13.56,7.21-36.12,15.63-47.64.53-.73,1.68-.28,1.6.62-4.73,53.29-48.23,89.63-37.19,152.62,3.67,20.95,3.91,52.4,19.83,60.62.07.04.16.07.24.09,25.23,5.93,39.07-30.91,48.91-44.91,22.62-32.2,50.64-52.97,63.17-96.42,7.58-26.3,1.15-62.85,6.56-92.08Z"/>
    </g>
  </g>
</svg>